HIERARCHY
ROOT Hips
{
   OFFSET 0.00000 0.00000 0.00000
   CHANNELS 6 Xposition Yposition Zposition Zrotation Xrotation Yrotation
   JOINT RightUpLeg
   {
      OFFSET -8.94580 -8.66707  0.10165
      CHANNELS 3 Zrotation Xrotation Yrotation
      JOINT RightLeg
      {
         OFFSET  0.00000 -44.42270  1.37270
         CHANNELS 3 Zrotation Xrotation Yrotation
         JOINT RightFoot
         {
            OFFSET  0.25355 -42.09240 -1.46059
            CHANNELS 3 Zrotation Xrotation Yrotation
            JOINT RightToes
            {
               OFFSET  0.04000 -4.41509  8.49910
               CHANNELS 3 Zrotation Xrotation Yrotation
               End Site
               {
                  OFFSET -0.08000 -0.13745  9.77979
               }
            }
         }
      }
   }
   JOINT Spine
   {
      OFFSET  0.00000 11.89050 -0.00000
      CHANNELS 3 Zrotation Xrotation Yrotation
      JOINT Spine1
      {
         OFFSET  0.00000 25.65740  0.12766
         CHANNELS 3 Zrotation Xrotation Yrotation
         JOINT head
         {
            OFFSET  0.00000  8.73416  0.01134
            CHANNELS 3 Zrotation Xrotation Yrotation
            End Site
            {
               OFFSET -0.29000 12.77420  2.51395
            }
         }
         JOINT LeftShoulder1
         {
            OFFSET  8.99000 -0.36225 -0.22000
            CHANNELS 3 Zrotation Xrotation Yrotation
            JOINT LeftArm
            {
               OFFSET 10.28270 -0.00338  0.32212
               CHANNELS 3 Zrotation Xrotation Yrotation
               JOINT LeftForeArm
               {
                  OFFSET 32.76690  0.09914 -1.42434
                  CHANNELS 3 Zrotation Xrotation Yrotation
                  JOINT LeftHand
                  {
                     OFFSET 27.56430  0.08536  1.02216
                     CHANNELS 3 Zrotation Xrotation Yrotation
                     End Site
                     {
                        OFFSET 16.74430 -0.60000  1.50291
                     }
                  }
               }
            }
         }
         JOINT RightShoulder
         {
            OFFSET -8.99000 -0.36225 -0.22000
            CHANNELS 3 Zrotation Xrotation Yrotation
            JOINT RightArm
            {
               OFFSET -10.28270 -0.00338  0.32212
               CHANNELS 3 Zrotation Xrotation Yrotation
               JOINT RightForeArm
               {
                  OFFSET -32.89710  0.09914 -1.42434
                  CHANNELS 3 Zrotation Xrotation Yrotation
                  JOINT RightHand
                  {
                     OFFSET -27.49210  0.08536  1.02216
                     CHANNELS 3 Zrotation Xrotation Yrotation
                     End Site
                     {
                        OFFSET -16.63120 -0.60000  1.50291
                     }
                  }
               }
            }
         }
      }
   }
   JOINT LeftUpLeg
   {
      OFFSET  8.94580 -8.66707  0.10165
      CHANNELS 3 Zrotation Xrotation Yrotation
      JOINT LeftLeg
      {
         OFFSET  0.00000 -44.42270  1.37270
         CHANNELS 3 Zrotation Xrotation Yrotation
         JOINT LeftFoot
         {
            OFFSET -0.25355 -42.09240 -1.46059
            CHANNELS 3 Zrotation Xrotation Yrotation
            JOINT LeftToes
            {
               OFFSET -0.04000 -4.41509  8.49910
               CHANNELS 3 Zrotation Xrotation Yrotation
               End Site
               {
                  OFFSET  0.08000 -0.04745  9.77979
               }
            }
         }
      }
   }
}
MOTION
Frames: 17
Frame Time: 0.033333
21.825702 125.060995 -107.321003 0.000184 -0.000000 -0.000048 0.064045 -3.490940 -0.000973 -0.133606 7.175500 0.022229 -0.121385 -3.684490 -0.141356 0.046205 0.000535 0.662642 -0.000301 -0.001389 0.000122 -0.000041 -0.000000 0.000000 -0.000000 0.000000 0.000000 -0.000000 0.000000 -0.000000 1.025180 -23.187900 0.146486 -1.194620 13.268900 0.273994 0.368473 9.908970 -0.001179 -0.006804 0.217195 0.000082 -1.016580 -23.416600 -0.150445 1.192200 13.275600 -0.273729 -0.369625 9.913830 0.001198 -0.000037 -3.488440 0.001439 0.000755 7.170430 -0.008097 -0.000288 -3.681990 0.006626 -0.000000 -0.000006 0.000000
21.775000 124.154003 -107.422999 -2.460250 7.951950 -1.241250 1.669390 -16.204299 2.018510 6.381020 31.881001 -23.174700 7.389790 -23.498899 0.778907 0.092416 -0.000485 1.325280 -1.415750 -0.408043 1.620990 -0.223588 0.026074 -0.005177 4.465940 -14.919700 2.255150 -0.000000 0.000000 -0.000000 -71.966104 -27.218799 2.099980 9.042980 41.725701 -48.300202 2.267500 9.882800 3.341940 13.994100 -1.000780 -8.607920 61.332701 -12.105200 0.477598 -15.833400 22.387501 55.430598 12.102299 10.749300 3.339270 3.869950 -16.288900 -0.763375 -4.493970 20.606300 8.561961 -12.485300 -14.070401 -0.643359 -0.000000 -0.000006 0.000000
21.546900 124.160002 -107.623003 -2.274850 7.790250 -1.595050 1.837750 -15.978101 2.403860 6.079170 31.432302 -23.074500 7.158540 -23.424101 0.741252 0.092416 -0.000365 1.325280 -1.278630 -0.628381 1.612330 -0.218928 0.026225 -0.005519 4.387870 -14.201700 1.663840 -0.000000 0.000000 -0.000000 -72.107905 -27.638999 2.363030 10.162100 42.763101 -49.497199 2.764090 9.870090 2.852110 13.438600 -1.059320 -9.176270 63.512795 -12.949701 0.213450 -18.292100 22.274000 54.824600 12.434901 10.928701 4.719300 3.900500 -16.180901 -0.626812 -4.561270 20.522101 8.836180 -12.531200 -13.971800 -0.635511 -0.000000 -0.000006 0.000000
21.286301 124.129999 -107.953003 -2.239990 8.142860 -1.880990 2.092880 -16.661300 2.766310 6.098110 31.719801 -23.199101 7.513229 -23.901501 0.822053 0.092415 -0.000306 1.325280 -0.746859 -0.924624 1.568060 -0.214067 0.024669 -0.005249 4.342370 -14.082500 2.185030 -0.000000 0.000000 -0.000000 -72.541301 -27.367900 1.755190 10.074500 42.445203 -49.214699 2.774550 9.870670 2.892160 13.830900 -1.045900 -8.939330 62.471403 -14.079800 0.223316 -17.636699 22.969499 54.093701 12.442600 10.871400 4.211860 4.107480 -16.971301 -0.128833 -4.445580 20.976300 8.757020 -12.710100 -13.921700 -0.640230 -0.000000 -0.000006 0.000000
20.985300 124.120005 -108.170002 -2.144140 8.199150 -2.123720 2.314190 -16.785700 3.031740 5.981020 31.589099 -23.117800 7.191620 -24.228701 0.794402 0.092415 -0.000247 1.325280 -0.314332 -1.176100 1.458960 -0.207701 0.023586 -0.005107 4.210120 -13.678099 2.386400 -0.000000 0.000000 -0.000000 -72.783404 -27.594999 1.698550 10.356300 42.826000 -49.644902 2.917460 9.866390 2.757650 13.879599 -1.050820 -8.950130 62.521305 -14.894399 0.007192 -18.258800 23.307899 53.283901 12.306700 10.893400 4.495630 4.251010 -17.252100 0.177364 -4.405320 21.170200 8.833780 -12.895000 -13.880700 -0.646128 -0.000000 -0.000006 0.000000
20.643699 124.107998 -108.363999 -2.062030 8.296580 -2.255190 2.519680 -16.909901 3.363780 6.014290 31.472299 -23.246200 7.060740 -24.757001 0.805985 0.092415 -0.000190 1.325280 0.229073 -1.417970 1.292870 -0.197676 0.021943 -0.004833 4.042440 -13.365900 2.720640 -0.000000 0.000000 -0.000000 -73.009497 -27.591499 1.541420 10.491000 43.066002 -49.918998 2.937860 9.863610 2.625500 14.000900 -1.052060 -8.911040 62.147304 -15.617999 -0.170489 -18.383101 23.695999 52.407502 11.888800 10.818900 4.107670 4.370710 -17.640101 0.424262 -4.264370 21.505100 8.831529 -13.226100 -13.848501 -0.661016 -0.000000 -0.000006 0.000000
20.248100 124.082001 -108.450001 -1.927660 8.051820 -2.327180 2.648040 -16.441899 3.776030 6.104710 31.035399 -23.383301 6.617150 -25.190600 0.761032 0.092415 -0.000133 1.325280 0.782662 -1.376510 1.097010 -0.181905 0.019962 -0.004297 3.830160 -13.007700 3.089030 -0.000000 0.000000 -0.000000 -73.259694 -27.693600 1.494950 10.465600 43.220300 -50.053699 3.093790 9.856420 2.382930 14.157000 -1.026780 -8.702680 61.650401 -16.592900 -0.631929 -18.697399 24.227699 51.596902 11.337300 10.762299 3.952000 4.407540 -17.596902 0.583947 -4.106220 21.805201 8.845179 -13.601100 -13.794300 -0.675585 -0.000000 -0.000006 0.000000
19.821100 124.061001 -108.510998 -1.944310 7.638670 -2.370110 2.972140 -15.703399 4.283850 6.150240 30.457801 -23.533000 6.050460 -25.586800 0.690563 0.092415 -0.000078 1.325280 1.357710 -1.304480 0.819568 -0.151550 0.016533 -0.003460 3.759500 -12.502000 3.569630 -0.000000 0.000000 -0.000000 -73.071802 -27.908501 1.780750 10.414800 43.542801 -50.342999 3.082990 9.857081 2.407060 14.567299 -0.993983 -8.365490 60.984901 -17.662202 -1.342860 -19.166300 25.081600 50.847500 10.369100 10.705400 4.083360 4.609100 -17.476200 0.730043 -3.906140 22.352899 8.756449 -14.049900 -13.816399 -0.703020 -0.000000 -0.000006 0.000000
19.403499 123.992994 -108.620003 -2.034100 7.350730 -2.367780 3.376200 -15.187300 4.729050 6.117440 30.006800 -23.566501 5.811900 -25.783899 0.661100 0.092415 -0.000023 1.325280 2.063970 -1.391730 0.553191 -0.103868 0.010733 -0.002307 3.597050 -11.951600 4.148960 -0.000000 0.000000 -0.000000 -72.856303 -27.842300 2.099220 10.267999 43.481602 -50.460399 3.018330 9.859690 2.485710 15.229300 -0.861888 -7.407200 59.263700 -19.305600 -3.382650 -19.089600 25.830000 51.747699 9.507289 10.563501 3.188930 4.850660 -17.907699 0.921725 -3.606420 23.554399 8.552491 -14.607601 -13.872100 -0.740934 -0.000000 -0.000006 0.000000
19.035101 123.859003 -108.718003 -2.247890 7.123240 -2.212670 3.836020 -14.820201 5.220780 6.260530 29.783101 -23.877701 5.783710 -26.099300 0.671445 0.092415 0.000031 1.325280 2.961060 -1.490140 0.243991 -0.040149 0.003077 -0.001150 3.345510 -11.460500 4.681160 -0.000000 0.000000 -0.000000 -72.693997 -27.693700 2.400290 10.141300 43.398499 -50.496101 3.186510 9.855240 2.400270 15.778500 -0.723515 -6.501810 57.655403 -20.915301 -5.358910 -19.016801 26.541000 52.734501 9.238470 10.503899 2.700610 5.160430 -18.834499 0.913362 -3.329590 25.495701 8.372340 -15.428501 -13.990500 -0.802685 -0.000000 -0.000006 0.000000
18.706499 123.600996 -108.839997 -2.704870 6.965980 -1.991660 4.530620 -14.691699 5.593230 6.390250 29.879400 -24.067199 5.642620 -26.407499 0.662037 0.092414 0.000084 1.325280 4.263800 -1.585430 -0.023949 0.051208 -0.009316 0.000199 2.930680 -11.069899 5.128270 -0.000000 0.000000 -0.000000 -72.647005 -27.490700 2.718500 9.813160 43.176300 -50.481399 3.243830 9.858010 2.571810 16.348900 -0.579977 -5.612030 56.054297 -22.252801 -7.141770 -19.032699 27.058500 53.610199 9.225300 10.513300 2.819130 5.786940 -20.564800 0.983692 -3.378060 28.593800 8.242520 -14.424400 -14.505000 -0.809012 -0.000000 -0.000006 0.000000
18.457001 123.247002 -109.001997 -3.318320 7.070790 -1.709690 5.345290 -15.107400 5.855050 6.596880 30.506299 -24.280899 5.546470 -27.066800 0.675607 0.092414 0.000135 1.325280 5.880120 -1.881120 -0.249168 0.161569 -0.025521 0.001841 2.334890 -10.727600 5.335670 -0.000000 0.000000 -0.000000 -72.600300 -27.104200 3.163350 9.789950 43.404899 -50.978698 3.760790 9.851949 2.635990 16.705700 -0.546073 -5.370970 55.138000 -22.631799 -7.443281 -19.046899 27.524201 53.268000 9.067761 10.556500 3.444380 6.580450 -23.222201 1.189440 -3.462640 32.765900 7.968980 -12.936599 -15.011000 -0.773193 -0.000000 -0.000006 0.000000
18.275900 122.846001 -109.099997 -3.867970 7.263990 -1.388710 5.996980 -15.679599 5.853290 6.859640 31.338800 -24.413900 5.467860 -27.845600 0.696675 0.092414 0.000186 1.325280 7.562480 -2.046790 -0.373630 0.264162 -0.044463 0.003626 1.601360 -10.570501 5.326800 -0.000000 0.000000 -0.000000 -72.801600 -26.735201 3.412980 9.699730 43.924598 -51.493698 4.677630 9.833370 2.477740 16.886801 -0.523240 -5.222550 54.303798 -22.855601 -7.298980 -19.125300 28.006398 53.116199 8.485111 10.545700 3.800290 7.270160 -26.233401 1.317320 -3.686280 37.273801 8.064330 -11.391300 -15.437899 -0.712323 -0.000000 -0.000006 0.000000
18.134701 122.462996 -109.096001 -4.362650 7.417760 -1.166110 6.568340 -16.187099 5.702480 7.032430 32.210899 -24.418900 5.487930 -28.474500 0.728845 0.092414 0.000236 1.325280 9.156279 -1.988220 -0.444447 0.357138 -0.067775 0.005437 0.948336 -10.509800 5.220790 -0.000000 0.000000 -0.000000 -72.858905 -26.230500 3.687560 9.551590 44.678398 -52.240698 5.583590 9.811970 2.308120 16.826299 -0.603272 -5.647340 54.578799 -22.285801 -5.372850 -19.656299 28.531000 51.717001 7.678920 10.574099 4.969770 7.912080 -29.318502 1.390060 -4.124420 41.716501 8.671670 -9.653730 -15.902900 -0.628749 -0.000000 -0.000006 0.000000
18.016500 122.144993 -109.026001 -4.718930 7.536850 -1.165630 6.995930 -16.554599 5.515410 7.125260 32.929797 -24.223500 5.412380 -28.979700 0.737046 0.092414 0.000286 1.325280 10.473300 -1.799780 -0.273985 0.432438 -0.093049 0.007782 0.398077 -10.465200 4.990250 -0.000000 0.000000 -0.000000 -72.805602 -25.722299 3.910100 9.350351 45.550398 -53.036600 6.189650 9.803560 2.351630 16.692699 -0.740089 -6.385410 55.133400 -20.616200 -2.939180 -19.977301 28.339199 50.230799 6.661630 10.548199 5.841730 8.452300 -32.097600 1.642930 -4.611360 45.494999 9.282230 -7.580490 -16.280700 -0.499266 -0.000000 -0.000006 0.000000
17.940000 121.933001 -108.679999 -4.706090 6.938790 -1.298620 6.919480 -15.698000 4.960470 7.032550 33.039397 -23.642401 5.243900 -29.318700 0.718802 0.092414 0.000334 1.325280 11.120800 -0.906081 -0.128101 0.476506 -0.116590 0.009958 -0.062852 -10.290599 4.857370 -0.000000 0.000000 -0.000000 -72.474803 -25.690599 4.317540 9.154240 46.825697 -53.864497 6.876260 9.785570 2.230910 16.592100 -0.875370 -7.116060 55.672401 -18.871799 -0.478730 -20.053400 28.187600 49.224098 5.381310 10.482200 6.717380 8.403760 -33.326197 1.670470 -4.867040 47.653800 9.762961 -7.062550 -16.183701 -0.453734 -0.000000 -0.000006 0.000000
17.870000 121.867998 -108.206003 -4.550140 6.338590 -1.573810 6.709330 -14.567701 4.373440 6.786040 32.739299 -22.767599 4.746330 -29.202901 0.615649 0.092414 0.000381 1.325280 11.297000 0.031619 0.107713 0.493385 -0.139565 0.011094 -0.438680 -10.119500 4.939520 -0.000000 0.000000 -0.000000 -72.000699 -25.910700 4.672380 8.976430 47.878103 -54.350899 7.109570 9.767980 1.986990 16.553600 -0.927504 -7.399320 55.916501 -17.501900 1.061590 -19.946599 27.652099 49.841898 4.482770 10.398100 6.750520 8.269821 -34.007000 1.302770 -5.573790 48.286401 10.479100 -7.048520 -16.242301 -0.456034 -0.000000 -0.000006 0.000000
